# xmcd
#
# Track frame offsets:
#	150
#	12005
#	24725
#	35739
#	48464
#	60366
#	72142
#	85671
#	99040
#	111158
#	123236
#	135135
#
# Disc length: 2062 seconds
#
# Revision: 408527464
# Processed by: cddbd v1.5.2PL0 Copyright (c) Steve Scherf et al.
# Submitted via: EZCDAudioConverter 8.5.0.1
#
DISCID=89080c0c
DTITLE=Tanya Tucker - My Turn
DYEAR=2009
DGENRE=Country
TTITLE0=Wine Me Up
TTITLE1=Lovesick Blues
TTITLE2=Love's Gonna Live Here
TTITLE3=Crazy Arms
TTITLE4=After The Fire Is Gone
TTITLE5=Is Anybody Going To San Antone?
TTITLE6=A Thousand Ways
TTITLE7=Big Big Love
TTITLE8=Walk Through This World With Me
TTITLE9=Oh, Lonesome Me
TTITLE10=You Don't Know Me
TTITLE11=Ramblin' Fever
EXTD=
EXTT0=
EXTT1=
EXTT2=
EXTT3=
EXTT4=
EXTT5=
EXTT6=
EXTT7=
EXTT8=
EXTT9=
EXTT10=
EXTT11=
PLAYORDER=
